# xmcd
#
# Track frame offsets:
#	150
#	17352
#	34462
#	52728
#	70146
#	88496
#	105741
#	120614
#	137518
#	153182
#	178274
#
# Disc length: 2624 seconds
#
# Revision: 2
# Processed by: cddbd v1.5.2PL0 Copyright (c) Steve Scherf et al.
# Submitted via: audiograbber 1.83.01
#
DISCID=8d0a3e0b
DTITLE=Sarah Buxton - Sarah Buxton
DYEAR=2010
DGENRE=Country
TTITLE0=American Daughters
TTITLE1=Outside My Window
TTITLE2=Radio Love (Featuring Jedd Hughes)
TTITLE3=For Real
TTITLE4=Wings (Featuring Jedd Hughes)
TTITLE5=Love Like Heaven
TTITLE6=Space
TTITLE7=Innocence
TTITLE8=That Kind Of Day
TTITLE9=Stupid Boy
TTITLE10=Big Blue Sky (Duet w/ Jedd Hughes)
EXTD=
EXTT0=
EXTT1=
EXTT2=
EXTT3=
EXTT4=
EXTT5=
EXTT6=
EXTT7=
EXTT8=
EXTT9=
EXTT10=
PLAYORDER=
